<mxfile host="app.diagrams.net" modified="2022-09-06T13:04:20.981Z" agent="5.0 (Windows NT 10.0; Win64; x64) AppleWebKit/537.36 (KHTML, like Gecko) Chrome/104.0.0.0 Safari/537.36" etag="P_mOr5JKiLzpkNYoieWJ" version="20.2.8" type="github">
  <diagram name="Page-1" id="8ce9d11a-91a2-4d17-14d8-a56ed91bf033">
    <mxGraphModel dx="1164" dy="598" grid="0" gridSize="10" guides="1" tooltips="1" connect="1" arrows="1" fold="1" page="1" pageScale="1" pageWidth="1100" pageHeight="850" background="#9AC7BF" math="0" shadow="1">
      <root>
        <mxCell id="0" />
        <mxCell id="1" parent="0" />
        <mxCell id="yQmMGdKQmBahugFoPw73-3" value="" style="edgeStyle=orthogonalEdgeStyle;rounded=0;orthogonalLoop=1;jettySize=auto;html=1;fontSize=34;fontColor=#000000;strokeColor=#000000;" edge="1" parent="1" source="yQmMGdKQmBahugFoPw73-1" target="yQmMGdKQmBahugFoPw73-2">
          <mxGeometry relative="1" as="geometry" />
        </mxCell>
        <mxCell id="yQmMGdKQmBahugFoPw73-9" value="" style="edgeStyle=orthogonalEdgeStyle;rounded=1;orthogonalLoop=1;jettySize=auto;html=1;strokeColor=#000000;fontSize=12;fontColor=#000000;" edge="1" parent="1" source="yQmMGdKQmBahugFoPw73-1" target="yQmMGdKQmBahugFoPw73-8">
          <mxGeometry relative="1" as="geometry">
            <Array as="points">
              <mxPoint x="576" y="228" />
              <mxPoint x="704" y="228" />
            </Array>
          </mxGeometry>
        </mxCell>
        <mxCell id="yQmMGdKQmBahugFoPw73-11" style="edgeStyle=orthogonalEdgeStyle;orthogonalLoop=1;jettySize=auto;html=1;strokeColor=#000000;fontSize=14;fontColor=#000000;rounded=1;" edge="1" parent="1" source="yQmMGdKQmBahugFoPw73-1" target="yQmMGdKQmBahugFoPw73-6">
          <mxGeometry relative="1" as="geometry">
            <Array as="points">
              <mxPoint x="524" y="230" />
              <mxPoint x="374" y="230" />
            </Array>
          </mxGeometry>
        </mxCell>
        <mxCell id="yQmMGdKQmBahugFoPw73-1" value="CONTEÚDO DOS&lt;br&gt;FORMATOS" style="text;html=1;strokeColor=none;fillColor=none;align=center;verticalAlign=middle;whiteSpace=wrap;rounded=0;fontColor=#000000;fontSize=34;fontStyle=1" vertex="1" parent="1">
          <mxGeometry x="406" y="275" width="288" height="87" as="geometry" />
        </mxCell>
        <mxCell id="yQmMGdKQmBahugFoPw73-2" value="Folha 1:&#xa;DETALHES &#xa;NOTAS &#xa;SELO&#xa;SIMBOLOGIA&#xa;TABELA ICC" style="fontSize=12;fontColor=#000000;gradientColor=#FFFFCC;gradientDirection=east;fillColor=#EA6B66;strokeColor=#000000;" vertex="1" parent="1">
          <mxGeometry x="491" y="92" width="118" height="104.5" as="geometry" />
        </mxCell>
        <mxCell id="yQmMGdKQmBahugFoPw73-13" value="" style="edgeStyle=orthogonalEdgeStyle;rounded=1;orthogonalLoop=1;jettySize=auto;html=1;strokeColor=#000000;fontSize=14;fontColor=#000000;" edge="1" parent="1" source="yQmMGdKQmBahugFoPw73-6" target="yQmMGdKQmBahugFoPw73-12">
          <mxGeometry relative="1" as="geometry" />
        </mxCell>
        <mxCell id="yQmMGdKQmBahugFoPw73-17" style="edgeStyle=orthogonalEdgeStyle;rounded=1;orthogonalLoop=1;jettySize=auto;html=1;strokeColor=#000000;fontSize=14;fontColor=#000000;" edge="1" parent="1" source="yQmMGdKQmBahugFoPw73-6" target="yQmMGdKQmBahugFoPw73-2">
          <mxGeometry relative="1" as="geometry" />
        </mxCell>
        <mxCell id="yQmMGdKQmBahugFoPw73-26" style="edgeStyle=orthogonalEdgeStyle;rounded=1;orthogonalLoop=1;jettySize=auto;html=1;strokeColor=#000000;fontSize=14;fontColor=#000000;" edge="1" parent="1" source="yQmMGdKQmBahugFoPw73-6">
          <mxGeometry relative="1" as="geometry">
            <mxPoint x="237.00259399414062" y="197.67183685302734" as="targetPoint" />
          </mxGeometry>
        </mxCell>
        <mxCell id="yQmMGdKQmBahugFoPw73-35" style="edgeStyle=orthogonalEdgeStyle;rounded=1;orthogonalLoop=1;jettySize=auto;html=1;strokeColor=#000000;fontSize=14;fontColor=#000000;entryX=1;entryY=0.5;entryDx=0;entryDy=0;" edge="1" parent="1" source="yQmMGdKQmBahugFoPw73-6" target="yQmMGdKQmBahugFoPw73-27">
          <mxGeometry relative="1" as="geometry">
            <mxPoint x="316.1692199707031" y="366.83846282958984" as="targetPoint" />
            <Array as="points">
              <mxPoint x="335" y="351" />
            </Array>
          </mxGeometry>
        </mxCell>
        <mxCell id="yQmMGdKQmBahugFoPw73-46" style="edgeStyle=orthogonalEdgeStyle;rounded=1;orthogonalLoop=1;jettySize=auto;html=1;entryX=1;entryY=0.5;entryDx=0;entryDy=0;strokeColor=#000000;fontSize=14;fontColor=#000000;" edge="1" parent="1" source="yQmMGdKQmBahugFoPw73-6" target="yQmMGdKQmBahugFoPw73-36">
          <mxGeometry relative="1" as="geometry" />
        </mxCell>
        <mxCell id="yQmMGdKQmBahugFoPw73-6" value="Em anteprojeto:" style="whiteSpace=wrap;html=1;strokeColor=#000000;fontSize=14;fontColor=#000000;fillColor=#EA6B66;gradientColor=#FFFFCC;gradientDirection=east;" vertex="1" parent="1">
          <mxGeometry x="299" y="150" width="120" height="34" as="geometry" />
        </mxCell>
        <mxCell id="yQmMGdKQmBahugFoPw73-16" style="edgeStyle=orthogonalEdgeStyle;rounded=1;orthogonalLoop=1;jettySize=auto;html=1;entryX=1;entryY=0.5;entryDx=0;entryDy=0;strokeColor=#000000;fontSize=14;fontColor=#000000;" edge="1" parent="1" source="yQmMGdKQmBahugFoPw73-8" target="yQmMGdKQmBahugFoPw73-2">
          <mxGeometry relative="1" as="geometry" />
        </mxCell>
        <mxCell id="yQmMGdKQmBahugFoPw73-54" style="edgeStyle=orthogonalEdgeStyle;rounded=1;orthogonalLoop=1;jettySize=auto;html=1;entryX=0;entryY=0.5;entryDx=0;entryDy=0;strokeColor=#000000;fontSize=14;fontColor=#000000;" edge="1" parent="1" source="yQmMGdKQmBahugFoPw73-8" target="yQmMGdKQmBahugFoPw73-51">
          <mxGeometry relative="1" as="geometry" />
        </mxCell>
        <mxCell id="yQmMGdKQmBahugFoPw73-59" style="edgeStyle=orthogonalEdgeStyle;rounded=1;orthogonalLoop=1;jettySize=auto;html=1;strokeColor=#000000;fontSize=14;fontColor=#000000;" edge="1" parent="1" source="yQmMGdKQmBahugFoPw73-8">
          <mxGeometry relative="1" as="geometry">
            <mxPoint x="822.8358154296875" y="206.00521087646484" as="targetPoint" />
          </mxGeometry>
        </mxCell>
        <mxCell id="yQmMGdKQmBahugFoPw73-60" style="edgeStyle=orthogonalEdgeStyle;rounded=1;orthogonalLoop=1;jettySize=auto;html=1;entryX=0;entryY=0.5;entryDx=0;entryDy=0;strokeColor=#000000;fontSize=14;fontColor=#000000;" edge="1" parent="1" source="yQmMGdKQmBahugFoPw73-8" target="yQmMGdKQmBahugFoPw73-49">
          <mxGeometry relative="1" as="geometry">
            <Array as="points">
              <mxPoint x="737" y="384" />
            </Array>
          </mxGeometry>
        </mxCell>
        <mxCell id="yQmMGdKQmBahugFoPw73-61" style="edgeStyle=orthogonalEdgeStyle;rounded=1;orthogonalLoop=1;jettySize=auto;html=1;entryX=0;entryY=0.5;entryDx=0;entryDy=0;strokeColor=#000000;fontSize=14;fontColor=#000000;" edge="1" parent="1" source="yQmMGdKQmBahugFoPw73-8" target="yQmMGdKQmBahugFoPw73-50">
          <mxGeometry relative="1" as="geometry">
            <Array as="points">
              <mxPoint x="720" y="502" />
            </Array>
          </mxGeometry>
        </mxCell>
        <mxCell id="yQmMGdKQmBahugFoPw73-8" value="Em Executivo:" style="whiteSpace=wrap;html=1;strokeColor=#000000;fontSize=14;fontColor=#000000;fillColor=#EA6B66;gradientColor=#FFFFCC;gradientDirection=east;" vertex="1" parent="1">
          <mxGeometry x="670" y="150" width="120" height="34" as="geometry" />
        </mxCell>
        <mxCell id="yQmMGdKQmBahugFoPw73-12" value="Folha 2:" style="ellipse;whiteSpace=wrap;html=1;fontSize=14;fillColor=#CCCCFF;strokeColor=#000000;fontColor=#000000;gradientDirection=east;gradientColor=#6666FF;" vertex="1" parent="1">
          <mxGeometry x="208" y="43" width="120" height="60" as="geometry" />
        </mxCell>
        <mxCell id="yQmMGdKQmBahugFoPw73-19" style="edgeStyle=orthogonalEdgeStyle;rounded=1;orthogonalLoop=1;jettySize=auto;html=1;strokeColor=#000000;fontSize=14;fontColor=#000000;" edge="1" parent="1" source="yQmMGdKQmBahugFoPw73-18" target="yQmMGdKQmBahugFoPw73-12">
          <mxGeometry relative="1" as="geometry" />
        </mxCell>
        <mxCell id="yQmMGdKQmBahugFoPw73-18" value="Deve possuir&lt;br&gt;&amp;nbsp;os primeiros pavimentos com pontos, tubulação, circuitos e comandos;" style="text;html=1;strokeColor=none;fillColor=none;align=center;verticalAlign=middle;whiteSpace=wrap;rounded=0;fontSize=14;fontColor=#000000;fontStyle=1" vertex="1" parent="1">
          <mxGeometry x="27" y="58" width="144" height="30" as="geometry" />
        </mxCell>
        <mxCell id="yQmMGdKQmBahugFoPw73-20" style="edgeStyle=orthogonalEdgeStyle;rounded=1;orthogonalLoop=1;jettySize=auto;html=1;exitX=0.5;exitY=1;exitDx=0;exitDy=0;strokeColor=#000000;fontSize=14;fontColor=#000000;" edge="1" parent="1" source="yQmMGdKQmBahugFoPw73-18" target="yQmMGdKQmBahugFoPw73-18">
          <mxGeometry relative="1" as="geometry" />
        </mxCell>
        <mxCell id="yQmMGdKQmBahugFoPw73-21" value="Folha seguinte:" style="ellipse;whiteSpace=wrap;html=1;fontSize=14;fillColor=#CCCCFF;strokeColor=#000000;fontColor=#000000;gradientDirection=east;gradientColor=#6666FF;" vertex="1" parent="1">
          <mxGeometry x="179" y="204" width="120" height="60" as="geometry" />
        </mxCell>
        <mxCell id="yQmMGdKQmBahugFoPw73-25" value="" style="edgeStyle=orthogonalEdgeStyle;rounded=1;orthogonalLoop=1;jettySize=auto;html=1;strokeColor=#000000;fontSize=14;fontColor=#000000;" edge="1" parent="1" source="yQmMGdKQmBahugFoPw73-23" target="yQmMGdKQmBahugFoPw73-21">
          <mxGeometry relative="1" as="geometry" />
        </mxCell>
        <mxCell id="yQmMGdKQmBahugFoPw73-23" value="Após os primeiros pavimentos serem feitos, a planta pilotis deve ser representada sozinha com pontos, tubulação, circuitos e comandos;" style="text;html=1;strokeColor=none;fillColor=none;align=center;verticalAlign=middle;whiteSpace=wrap;rounded=0;fontSize=14;fontColor=#000000;fontStyle=1" vertex="1" parent="1">
          <mxGeometry x="18" y="219" width="126" height="30" as="geometry" />
        </mxCell>
        <mxCell id="yQmMGdKQmBahugFoPw73-27" value="Folha seguinte:" style="ellipse;whiteSpace=wrap;html=1;fontSize=14;fillColor=#99FFFF;strokeColor=#000000;fontColor=#000000;gradientDirection=east;gradientColor=#FFE599;" vertex="1" parent="1">
          <mxGeometry x="174" y="321" width="120" height="60" as="geometry" />
        </mxCell>
        <mxCell id="yQmMGdKQmBahugFoPw73-30" style="edgeStyle=orthogonalEdgeStyle;rounded=1;orthogonalLoop=1;jettySize=auto;html=1;strokeColor=#000000;fontSize=14;fontColor=#000000;entryX=0.5;entryY=1;entryDx=0;entryDy=0;" edge="1" parent="1" source="yQmMGdKQmBahugFoPw73-28" target="yQmMGdKQmBahugFoPw73-27">
          <mxGeometry relative="1" as="geometry">
            <mxPoint x="168" y="350" as="targetPoint" />
          </mxGeometry>
        </mxCell>
        <mxCell id="yQmMGdKQmBahugFoPw73-28" value="Após o pilotis os apartamentos devem ser representados com pontos, tubulação, circuitos e comandos;" style="text;html=1;strokeColor=none;fillColor=none;align=center;verticalAlign=middle;whiteSpace=wrap;rounded=0;fontSize=14;fontColor=#000000;fontStyle=1" vertex="1" parent="1">
          <mxGeometry x="14" y="397" width="126" height="30" as="geometry" />
        </mxCell>
        <mxCell id="yQmMGdKQmBahugFoPw73-36" value="Última folha:" style="ellipse;whiteSpace=wrap;html=1;fontSize=14;fillColor=#99FFFF;strokeColor=#000000;fontColor=#000000;gradientDirection=east;gradientColor=#FFE599;" vertex="1" parent="1">
          <mxGeometry x="194" y="454" width="120" height="60" as="geometry" />
        </mxCell>
        <mxCell id="yQmMGdKQmBahugFoPw73-45" style="edgeStyle=orthogonalEdgeStyle;rounded=1;orthogonalLoop=1;jettySize=auto;html=1;entryX=0.5;entryY=1;entryDx=0;entryDy=0;strokeColor=#000000;fontSize=14;fontColor=#000000;" edge="1" parent="1" source="yQmMGdKQmBahugFoPw73-38" target="yQmMGdKQmBahugFoPw73-36">
          <mxGeometry relative="1" as="geometry" />
        </mxCell>
        <mxCell id="yQmMGdKQmBahugFoPw73-38" value="Após todos os apartamentos serem representados, a ultima folha deve ser o último pavimento do prédio, normalmente a plnta cobertura ou barrilete;" style="text;html=1;strokeColor=none;fillColor=none;align=center;verticalAlign=middle;whiteSpace=wrap;rounded=0;fontSize=14;fontColor=#000000;fontStyle=1" vertex="1" parent="1">
          <mxGeometry x="18" y="507" width="162" height="118" as="geometry" />
        </mxCell>
        <mxCell id="yQmMGdKQmBahugFoPw73-47" value="Folha 2:" style="ellipse;whiteSpace=wrap;html=1;fontSize=14;fillColor=#99FFFF;strokeColor=#000000;fontColor=#000000;gradientDirection=east;gradientColor=#FFE599;" vertex="1" parent="1">
          <mxGeometry x="208" y="43" width="120" height="60" as="geometry" />
        </mxCell>
        <mxCell id="yQmMGdKQmBahugFoPw73-48" value="Folha seguinte:" style="ellipse;whiteSpace=wrap;html=1;fontSize=14;fillColor=#99FFFF;strokeColor=#000000;fontColor=#000000;gradientDirection=east;gradientColor=#FFE599;" vertex="1" parent="1">
          <mxGeometry x="179" y="204" width="120" height="60" as="geometry" />
        </mxCell>
        <mxCell id="yQmMGdKQmBahugFoPw73-49" value="Folha seguinte:" style="ellipse;whiteSpace=wrap;html=1;fontSize=14;fillColor=#99FFFF;strokeColor=#000000;fontColor=#000000;gradientDirection=east;gradientColor=#FFE599;" vertex="1" parent="1">
          <mxGeometry x="758" y="354" width="120" height="60" as="geometry" />
        </mxCell>
        <mxCell id="yQmMGdKQmBahugFoPw73-50" value="Última folha:" style="ellipse;whiteSpace=wrap;html=1;fontSize=14;fillColor=#99FFFF;strokeColor=#000000;fontColor=#000000;gradientDirection=east;gradientColor=#FFE599;" vertex="1" parent="1">
          <mxGeometry x="758" y="472" width="120" height="60" as="geometry" />
        </mxCell>
        <mxCell id="yQmMGdKQmBahugFoPw73-56" style="edgeStyle=orthogonalEdgeStyle;rounded=1;orthogonalLoop=1;jettySize=auto;html=1;strokeColor=#000000;fontSize=14;fontColor=#000000;" edge="1" parent="1" source="yQmMGdKQmBahugFoPw73-51" target="yQmMGdKQmBahugFoPw73-55">
          <mxGeometry relative="1" as="geometry" />
        </mxCell>
        <mxCell id="yQmMGdKQmBahugFoPw73-51" value="Folha 2:" style="ellipse;whiteSpace=wrap;html=1;fontSize=14;fillColor=#99FFFF;strokeColor=#000000;fontColor=#000000;gradientDirection=east;gradientColor=#FFE599;" vertex="1" parent="1">
          <mxGeometry x="758" y="43" width="120" height="65" as="geometry" />
        </mxCell>
        <mxCell id="yQmMGdKQmBahugFoPw73-52" value="Folha seguinte:" style="ellipse;whiteSpace=wrap;html=1;fontSize=14;fillColor=#99FFFF;strokeColor=#000000;fontColor=#000000;gradientDirection=east;gradientColor=#FFE599;" vertex="1" parent="1">
          <mxGeometry x="758" y="219" width="120" height="60" as="geometry" />
        </mxCell>
        <mxCell id="yQmMGdKQmBahugFoPw73-55" value="Deve possuir&lt;br&gt;&amp;nbsp;os primeiros pavimentos com pontos, tubulação, circuitos e comandos;" style="text;html=1;strokeColor=none;fillColor=none;align=center;verticalAlign=middle;whiteSpace=wrap;rounded=0;fontSize=14;fontColor=#000000;fontStyle=1" vertex="1" parent="1">
          <mxGeometry x="942" y="18" width="144" height="115" as="geometry" />
        </mxCell>
      </root>
    </mxGraphModel>
  </diagram>
</mxfile>
